<svg xmlns="http://www.w3.org/2000/svg" height="666.667" width="666.667"><defs><clipPath id="a" clipPathUnits="userSpaceOnUse"><path d="M2898.25 3070.78c-1.11-11.34-16.61-129.74-138.36-129.74-127.81 0-106.4 126.55-106.4 126.55l-.16.79c12.46 2.56 25.88 3.52 40.1 1.92v59.91l145.08 81.17h5.27v-139.8s23 2.72 54.47-.8z"/></clipPath><clipPath id="c" clipPathUnits="userSpaceOnUse"><path d="M2827.79 3478.83c20.58-20.86 36.13-47.85 43.61-80.84 13.94-61.46.83-126.49-17.01-185.72-3.04-10.14-6.51-20.36-12.77-28.89-4.46-6.08-10.21-11.09-15.91-16.05-25.8-22.47-51.6-44.95-77.34-67.49-17.46-15.27-124.89-28-145.4-13.35-79.01 56.5-94.22 220.18-78.41 303.87 26.24 138.82 204.67 188.45 303.23 88.47z"/></clipPath><clipPath id="e" clipPathUnits="userSpaceOnUse"><path d="M2543.24 1200.98l42.18-96.19-129.25-56.72-42.34 96.5z"/></clipPath><clipPath id="g" clipPathUnits="userSpaceOnUse"><path d="M2050.48 1176.23l10.1-144.5h-141.09l-10.1 144.82z"/></clipPath><clipPath id="i" clipPathUnits="userSpaceOnUse"><path d="M2314.61 2462.53l-2.08-69.98h-255.64s25.41 99.86 94.59 99.86 95.86-36.59 95.86-36.59z"/></clipPath><clipPath id="k" clipPathUnits="userSpaceOnUse"><path d="M2984.21 2504.39l-250.36 88.68c-18.22-34.04-37.71-59.6-57.03-64.72-29.24-7.66-99.87-20.92-171.13-33.38-9.42-1.76-18.84-3.36-28.27-5.12-84.84-14.69-162.81-27.32-162.81-27.32l-.16-4.15v-2.72l-1.92-63.11v-16.02s85 4.36 192.21-3.15c150.03-10.7 343.51-17.1 407.57 13.09 30.04 14.23 54.01 60.88 72.87 118.4z"/></clipPath><clipPath id="m" clipPathUnits="userSpaceOnUse"><path d="M3931.83 1627.85c-17.15-83.25-11.99-225.06-122.12-247.52-29.66-6.04-58.31 14.51-75.55 38.07-22.56 30.83-27.96 96.08-27.57 133.41.31 29.58 10.4 62.56 13.64 92.41 3.52 32.23 6.37 64.53 10.13 96.74 13.55 116.08 74.19 213.37 176.76 271.32 7.94-38.11 26.03-70.36 41.99-106.95 7.28-16.68 13.84-34.27 18.58-51.75 8.38-30.95-1.76-62.23-9.29-91.88-11.13-43.83-17.43-89.51-26.57-133.85z"/></clipPath><clipPath id="o" clipPathUnits="userSpaceOnUse"><path d="M3583.28 1651.69c19.59-82.72 84.12-209.09-6.24-275.95-24.33-18-58.98-11.44-84.56 2.64-33.46 18.42-65.9 75.3-81.29 109.31-12.21 26.95-16.98 61.11-26.63 89.53-10.43 30.7-21.47 61.19-31.66 91.97-36.71 110.96-22.79 224.75 45.74 320.58 23.27-31.2 53.3-52.8 83.21-79.23 13.62-12.05 27-25.24 38.67-39.08 20.67-24.53 24.68-57.16 30.36-87.22 8.41-44.44 21.98-88.51 32.4-132.55z"/></clipPath><clipPath id="q" clipPathUnits="userSpaceOnUse"><path d="M3774.17 1715.8c4.65-105.1 53.85-273.67-71.48-334.01-33.76-16.25-74.36-.27-102.19 22.77-36.42 30.15-62.69 106.81-73.53 151.71-8.59 35.59-6.49 78.22-11.64 115.01-5.56 39.74-11.93 79.36-17.19 119.15-18.93 143.38 24.33 278.5 129.83 379.12 21.07-43.31 52.58-76.52 82.8-115.59 13.79-17.8 26.99-36.92 37.98-56.45 19.45-34.6 16.76-75.21 16.71-113.06-.06-55.96 6.23-112.69 8.71-168.65z"/></clipPath><radialGradient id="b" spreadMethod="pad" gradientTransform="matrix(129.255 0 0 -129.255 2775.2 3076.21)" gradientUnits="userSpaceOnUse" r="1" cy="0" cx="0" fy="0" fx="0"><stop offset="0" stop-color="#fabda6"/><stop offset="1" stop-color="#f9ad90"/></radialGradient><radialGradient id="d" spreadMethod="pad" gradientTransform="scale(203.7768 -203.7768) rotate(-12.152 -69.68 -70.371)" gradientUnits="userSpaceOnUse" r="1" cy="0" cx="0" fy="0" fx="0"><stop offset="0" stop-color="#fabda6"/><stop offset="1" stop-color="#f9ad90"/></radialGradient><radialGradient id="f" spreadMethod="pad" gradientTransform="matrix(81.2587 0 0 -81.2587 2499.63 1124.52)" gradientUnits="userSpaceOnUse" r="1" cy="0" cx="0" fy="0" fx="0"><stop offset="0" stop-color="#fabda6"/><stop offset="1" stop-color="#f9ad90"/></radialGradient><radialGradient id="h" spreadMethod="pad" gradientTransform="matrix(74.0153 0 0 -74.0153 1984.99 1104.14)" gradientUnits="userSpaceOnUse" r="1" cy="0" cx="0" fy="0" fx="0"><stop offset="0" stop-color="#fabda6"/><stop offset="1" stop-color="#f9ad90"/></radialGradient><radialGradient id="j" spreadMethod="pad" gradientTransform="scale(414.4423 -414.4423) rotate(9.121 40.646 33.831)" gradientUnits="userSpaceOnUse" r="1" cy="0" cx="0" fy="0" fx="0"><stop offset="0" stop-color="#fabda6"/><stop offset="1" stop-color="#f9ad90"/></radialGradient><radialGradient id="l" spreadMethod="pad" gradientTransform="scale(414.4393 -414.4393) rotate(9.121 40.646 33.831)" gradientUnits="userSpaceOnUse" r="1" cy="0" cx="0" fy="0" fx="0"><stop offset="0" stop-color="#fabda6"/><stop offset="1" stop-color="#f9ad90"/></radialGradient><linearGradient id="n" spreadMethod="pad" gradientTransform="scale(633.004 -633.004) rotate(89.998 4.622 1.443)" gradientUnits="userSpaceOnUse" y2="0" x2="1" y1="0" x1="0"><stop offset="0" stop-color="#5c60b6"/><stop offset="1" stop-color="#523ea0"/></linearGradient><linearGradient id="p" spreadMethod="pad" gradientTransform="scale(633.003 -633.003) rotate(65.032 5.065 2.586)" gradientUnits="userSpaceOnUse" y2="0" x2="1" y1="0" x1="0"><stop offset="0" stop-color="#5c60b6"/><stop offset="1" stop-color="#523ea0"/></linearGradient><linearGradient id="r" spreadMethod="pad" gradientTransform="scale(783.377 -783.377) rotate(75.817 4.024 1.535)" gradientUnits="userSpaceOnUse" y2="0" x2="1" y1="0" x1="0"><stop offset="0" stop-color="#5c60b6"/><stop offset="1" stop-color="#523ea0"/></linearGradient></defs><path d="M0 666.667h666.667V0H0z" fill="#fbfdfe"/><path d="M620.908 406.113l-21.023 147.612H65.331L49.544 441.117c-1.756-12.616 5.22-24.842 16.99-29.737l47.443-19.688v-47.184c0-13.901 10.178-25.688 23.934-27.688l11.217-1.643 18.844-63.717c3.512-11.903 14.439-20.047 26.828-20.047h192.747a27.936 27.936 0 0119.054 7.479 27.962 27.962 0 018.846 18.47l91.78 9.69c13.625 1.447 24.193 12.519 25.006 26.193l3.707 63.67 64.856 18.322c13.495 3.804 22.079 17.007 20.112 30.876" fill="#ddecf1"/><path d="M97.38 436.556l16.686 117.17h424.307l12.532-89.383c1.395-10.016-4.142-19.72-13.486-23.604l-37.659-15.63v-37.452c0-11.033-8.077-20.39-18.996-21.977l-8.905-1.304-14.958-50.577a22.197 22.197 0 00-21.294-15.912H282.612a22.18 22.18 0 00-15.125 5.936 22.196 22.196 0 00-7.02 14.661l-72.852 7.69c-10.815 1.15-19.204 9.938-19.85 20.793l-2.942 50.537-51.48 14.544c-10.712 3.021-17.526 13.5-15.964 24.508" fill="#cfdce4"/><path d="M447.43 510.065c0-12.629-9.247-23.337-21.742-25.154l-10.192-1.492-17.12-57.886c-3.19-10.81-13.116-18.21-24.37-18.21H198.903a25.374 25.374 0 00-17.31 6.794 25.406 25.406 0 00-8.037 16.779l-75.81 8.004 16.354 114.825h335.25l-1.922-.797v-42.863" fill="#bdd0d8"/><path d="M160.308 253.563h130.073V132.158H160.308z" fill="#192941"/><path d="M160.308 144.997h130.073v-12.84H160.308z" fill="#2c4666"/><path d="M262.264 138.723a2.354 2.354 0 11-4.708.001 2.354 2.354 0 014.708-.001" fill="#5c60b6"/><path d="M272.092 138.723a2.354 2.354 0 11-4.708 0 2.354 2.354 0 014.708 0" fill="#f8cf3e"/><path d="M281.217 138.97a2.353 2.353 0 11-4.706.001 2.353 2.353 0 014.706 0M201.86 158.481h-18.423v-1.548h18.423v1.548" fill="#f46b6f"/><path d="M223.483 158.481H205.06v-1.548h18.423v1.548" fill="#f8cf3e"/><path d="M217.703 166.823h-28.567v-1.548h28.567v1.548" fill="#5c60b6"/><path d="M236.948 166.823h-14.521v-1.548h14.521v1.548" fill="#f46b6f"/><path d="M211.592 175.164h-12.547v-1.55h12.547v1.55M260.468 175.164h-41.624v-1.55h41.624v1.55" fill="#f8cf3e"/><path d="M256.36 183.504h-47.57v-1.548h47.57v1.548" fill="#5c60b6"/><path d="M211.537 191.845h-14.64v-1.548h14.64v1.548" fill="#f46b6f"/><path d="M232.441 191.845h-14.64v-1.548h14.64v1.548" fill="#5c60b6"/><path d="M204.736 233.572h-21.299v1.548h21.299v-1.548" fill="#f46b6f"/><path d="M233.492 233.572h-21.297v1.548h21.297v-1.548" fill="#f8cf3e"/><path d="M261.475 233.572h-21.298v1.548h21.298v-1.548" fill="#f46b6f"/><path d="M230.759 225.23h-41.623v1.549h41.623v-1.548" fill="#5c60b6"/><path d="M278.87 225.23h-41.62v1.549h41.62v-1.548M240.35 216.89h-41.305v1.547h41.304v-1.548" fill="#f46b6f"/><path d="M255.447 216.89H243.95v1.547h11.496v-1.548M211.897 208.548h-15.549v1.548h15.55v-1.548" fill="#f8cf3e"/><path d="M235.704 208.548h-15.55v1.548h15.55v-1.548" fill="#5c60b6"/><path d="M261.253 208.548h-15.549v1.548h15.55v-1.548" fill="#f46b6f"/><path d="M236.176 200.207h-21.804v1.549h21.804v-1.55" fill="#f8cf3e"/><path d="M206.147 200.207h-21.803v1.549h21.803v-1.55" fill="#5c60b6"/><path d="M173.361 157.428h-1.981v-1.983h1.981v1.983M173.361 167.533h-1.981v-4.041h1.981zm0 10.106h-1.981v-4.042h1.981zm0 10.106h-1.981v-4.042h1.981zm0 10.106h-1.981v-4.043h1.981zm0 10.105h-1.981v-4.041h1.981zm0 10.107h-1.981v-4.042h1.981zm0 10.105h-1.981v-4.041h1.981v4.041M173.361 236.215h-1.981v-1.983h1.981v1.983" fill="#fbfdfe"/><path d="M425.475 172.387H318.368v-66.02h107.107v66.02" fill="#f46b6f"/><path d="M359.967 132.92l-12.744 5.44 12.744 5.359-1.668 3.849-15.283-6.827v-4.724l15.283-6.868 1.668 3.771M378.747 120.337l-9.25 35.528-4.406-1.032 9.289-35.488 4.367.992M400.861 136.017v4.724l-15.282 6.827-1.667-3.85 12.703-5.358-12.703-5.44 1.667-3.77 15.282 6.867" fill="#fbfdfe"/><path d="M482.801 277.728h-61.004v-43.461h61.004v43.461" fill="#5c60b6"/><path d="M447.315 243.65c-1.962 0-2.618.529-2.618 1.993v6.541c0 2.555-1.058 3.333-2.834 3.832 1.776.467 2.834 1.245 2.834 3.768v6.541c0 1.464.687 1.994 2.618 1.994v2.866c-4.954 0-6.355-1.589-6.355-4.89v-6.199c0-1.776-.467-2.461-2.087-2.461v-3.271c1.62 0 2.087-.716 2.087-2.492v-6.199c0-3.332 1.401-4.889 6.355-4.889v2.865M463.637 245.673v6.199c0 1.776.467 2.492 2.118 2.492v3.27c-1.651 0-2.118.686-2.118 2.462v6.199c0 3.301-1.401 4.89-6.353 4.89v-2.866c1.93 0 2.616-.53 2.616-1.994v-6.541c0-2.523 1.059-3.301 2.835-3.768-1.776-.499-2.835-1.277-2.835-3.832v-6.541c0-1.464-.653-1.994-2.616-1.994v-2.865c4.952 0 6.353 1.557 6.353 4.89" fill="#f4f6f5"/><path d="M187.35 161.61h-68.44v-45.775h68.44v45.776" fill="#f8cf3e"/><path d="M155.979 141.576c-3.098 3.096-8.136 3.096-11.234-.001-3.097-3.098-3.097-8.135 0-11.232 3.098-3.098 8.136-3.098 11.234 0 3.097 3.097 3.097 8.136 0 11.233zm-14.418-12.601c-3.268 4.09-3.217 10.065.112 14.105 3.783 4.59 10.263 5.33 14.919 2.225l7.184 7.183a.777.777 0 001.097 0l2.018-2.019a.774.774 0 000-1.097l-7.183-7.183c2.91-4.362 2.443-10.328-1.403-14.173-4.68-4.68-12.493-4.36-16.744.959" fill="#fbfdfe"/><g clip-path="url(#a)" transform="matrix(.13333 0 0 -.13333 0 666.667)"><path d="M2898.25 3070.78c-1.11-11.34-16.61-129.74-138.36-129.74-127.81 0-106.4 126.55-106.4 126.55l-.16.79c12.46 2.56 25.88 3.52 40.1 1.92v59.91l145.08 81.17h5.27v-139.8s23 2.72 54.47-.8" fill="url(#b)"/></g><g clip-path="url(#c)" transform="matrix(.13333 0 0 -.13333 0 666.667)"><path d="M2827.79 3478.83c20.58-20.86 36.13-47.85 43.61-80.84 13.94-61.46.83-126.49-17.01-185.72-3.04-10.14-6.51-20.36-12.77-28.89-4.46-6.08-10.21-11.09-15.91-16.05-25.8-22.47-51.6-44.95-77.34-67.49-17.46-15.27-124.89-28-145.4-13.35-79.01 56.5-94.22 220.18-78.41 303.87 26.24 138.82 204.67 188.45 303.23 88.47" fill="url(#d)"/></g><path d="M371.123 226.51c.14-1.782 1.972-3.733 3.81-2.577 1.904 1.198 1.456 4.362.667 6.102-.619 1.366-2.687 2.861-4.09 1.592-1.173-1.066.651-2.32.711-3.292.055-.875-1.694-1.502-.978-2.438" fill="#f7a388"/><path d="M371.46 234.748c1.92.576 5.173-.888 5.996-3.563.823-2.674.735-5.728.735-5.728s.966 2.422.469 6.318c-.497 3.894-1.861 7.605-4.919 7.654-3.057.048-2.281-4.681-2.281-4.681" fill="#f7a388"/><path d="M369.104 231.976l-.215.064c-1.189.167-1.664-1.272-1.84-2.172-.412-2.103-.348-4.23-.42-6.357-.017-.534.024-1.199-.194-1.7-.668-1.53-2.448-2.523-2.991-4.103-.632-1.837 1.152-3.67.444-5.681-1.083-3.082-5.04-3.79-7.901-3.756-4.294.05-8.48.846-12.718 1.504-4.473.694-10.19 1.353-14.132-1.476-4.752-3.41-6.736-12.296-3.19-17.16 1.932-2.654 5.597-4.066 8.808-4.139 3.404-.079 6.28 1.95 9.402 2.972 2.487.813 4.892-1.565 7.216-2.03 2.923-.583 4.163 2.606 6.748 2.693 2.511.085 4.974-1.876 7.415-2.322 4.868-.889 4.581 4 7.847 5.67 2.03 1.038 4.652.409 6.705 1.464 1.56.801 1.779 2.209 2.119 3.804.294 1.38.31 2.972.765 4.282.408 1.179 1.397 1.923 2.17 2.844.842 1.007 1.38 2.18 1.807 3.442.948 2.797 1.159 5.814.9 8.742-.433 4.915-2.016 9.754-3.657 14.383-1.065 3.003-1.461 6.13-3.1 8.973-.44.764-2.395 2.996-3.121 1.334-.156-.356-.132-.762-.106-1.15.218-3.097 3.1-23.049-4.458-20.653-1.587.504-2.651 1.824-3.243 3.33-.707 1.802-.756 3.617-.667 5.52.014.273.02.546.01.818-.014.352-.102.71-.403.86" fill="#38397c"/><path d="M359.124 255.465c8.595-1.381 14.265-8.17 14.265-8.17s-2.317 11.441-14.781 12.046l.516-3.876" fill="#f7a388"/><path d="M373.232 411.427h12.301V529.46c0 1.196-.97 2.168-2.168 2.168H375.4a2.168 2.168 0 01-2.168-2.168V411.427" fill="#16202d"/><path d="M345.555 413.115h67.656v1.846c0 4.65-3.77 8.419-8.419 8.419h-50.819a8.419 8.419 0 01-8.418-8.419v-1.846" fill="#2f415b"/><path d="M373.232 517.635h12.301v27.35c0 1.198-.97 2.168-2.168 2.168H375.4a2.167 2.167 0 01-2.168-2.168v-27.35M315.543 539.953a7.2 7.2 0 1014.401-.001 7.2 7.2 0 00-14.401.001M428.821 539.953a7.2 7.2 0 1014.402-.001 7.2 7.2 0 00-14.402.001" fill="#16202d"/><path d="M367.008 530.093h24.75v-21.626h-24.75v21.626" fill="#2f415b"/><path d="M315.543 535.183h127.68v-2.51a7.668 7.668 0 00-7.67-7.668H323.211a7.667 7.667 0 00-7.668 7.668v2.51" fill="#f8cf3e"/><path d="M379.383 506.536h-4.267v-80.73h4.267v80.73" fill="#2f415b"/><path d="M427.715 325.87c-2.952-.093-5.352 2.351-5.182 5.3.844 14.653-2.261 50.4-15.909 62.595-16.688 14.914-63.985 12.882-63.985 12.882s-7.812 9.586 7.81 11.716c15.623 2.13 59.648.712 70.3-9.23 10.31-9.624 16.431-34.836 11.818-78.718-.264-2.516-2.322-4.466-4.852-4.544" fill="#f8cf3e"/><g clip-path="url(#e)" transform="matrix(.13333 0 0 -.13333 0 666.667)"><path d="M2543.24 1200.98l42.18-96.19-129.25-56.72-42.34 96.5 129.41 56.41" fill="url(#f)"/></g><path d="M420.37 363.999c-1.065 2.132-77.638.042-84.871.702 0 0-46.866 22.37-53.598 43.31-.682 2.109-.873 4.9-.66 8.224 1.874 29.482 35.448 100.08 35.448 100.08l5.155-2.258 17.255-7.521 2.45-1.064s-26.629-79.353-21.302-83.613c5.325-4.262 65.676-14.912 86.616-20.579 20.962-5.69 13.506-37.281 13.506-37.281" fill="#504b90"/><g clip-path="url(#g)" transform="matrix(.13333 0 0 -.13333 0 666.667)"><path d="M2050.48 1176.23l10.1-144.5h-141.09l-10.1 144.82 141.09-.32" fill="url(#h)"/></g><path d="M335.116 364.041l-.683.299s-78.458 11.015-91.238 33.02c-8.31 14.315 7.772 118.919 7.772 118.919l27.757.064s-4.15-87.136-2.767-91.992c1.556-5.54 4.219-7.543 5.284-8.116-.213-3.324-.022-6.115.66-8.224 6.732-20.94 53.598-43.31 53.598-43.31-.148-.105-.278-.34-.383-.66" fill="#38397c"/><path d="M410.897 291.548l-5.261.724s-1.279 14.188-4.41 28.376l-65.549 24.881-.896 4.751-.809-.064c.021.98.021 1.939.064 2.833.15 5.476.51 9.416 1.087 10.992.106.32.234.555.384.66 1.78 1.452 24.964-1.361 50.026 7.842 21.738 7.982 33.922 16.7 34.484 15.529 6.832-14.203-5.605-69.937-9.12-96.524" fill="#f46b6f"/><path d="M404.059 324.056c-1.747 8.393-6.263 25.095-15.126 27.332-11.568 2.94-33.934 2.79-54.897 1.661-.043-.894-.043-1.853-.064-2.833l.81.064.895-4.75 65.548-24.882c3.132-14.188 4.411-28.376 4.411-28.376s0 .085.02.235c.128 2.194 1.023 19.152-1.597 31.549M338.355 270.608c-1.172 2.13-2.856 24.924-3.771 47.548l-13.4-12.505c5.687-11.014 17.17-35.043 17.17-35.043" fill="#f14b53"/><path d="M330.323 334.687a2293.404 2293.404 0 01-21.708 3.642l-.022.554c-12.589-10.055-31.741-38.536-31.741-38.536s5.73-6.882 7.159-8.692c.212-.278 31.442 21.217 33.04 21.025.405-.041 2.002-2.853 4.133-7.03l13.4 12.506a849.056 849.056 0 00-.492 15.848c-1.256.235-2.512.448-3.77.683" fill="#f7a388"/><g clip-path="url(#i)" transform="matrix(.13333 0 0 -.13333 0 666.667)"><path d="M2314.61 2462.53l-2.08-69.98h-255.64s25.41 99.86 94.59 99.86 95.86-36.59 95.86-36.59l67.27 6.71" fill="url(#j)"/></g><path d="M283.753 291.441l.258.214c-1.428 1.81-7.159 8.692-7.159 8.692l-3.557-2.514s-3.92 2.386-8.479-.108c-4.75-2.577-1.81-8.732-1.567-9.461-.921.26-6.613 4.86-7.508 4.37-.894-.49-1.554-2.109 4.814-8.393 6.349-6.284 14.997 1.79 15.253 1.79l7.945 5.41" fill="#f7a388"/><path d="M265.557 296.657s-1.373 2.571 1.068 3.69c2.442 1.117 7.191 1.924 9.232 1.728 2.04-.198 3.663-3.052 3.663-3.052l-6.18-5.799h-4.94l-2.843 3.433" fill="#f7a388"/><path d="M265.192 297.92c.365-1.263 3.875-.59 6.05-.537 1.602.037 2.48-.383 2.974-1.604.496-1.22-1.83-3.166-2.288-2.555-.457.61.839 1.47.877 2.279.039.81-2.288 1.078-4.081 1.078-1.793 0-4.887.467-4.887.467l1.355.872" fill="#e9896f"/><g clip-path="url(#k)" transform="matrix(.13333 0 0 -.13333 0 666.667)"><path d="M2984.21 2504.39l-250.36 88.68c-18.22-34.04-37.71-59.6-57.03-64.72-29.24-7.66-99.87-20.92-171.13-33.38-9.42-1.76-18.84-3.36-28.27-5.12-84.84-14.69-162.81-27.32-162.81-27.32l-.16-4.15v-2.72l-1.92-63.11v-16.02s85 4.36 192.21-3.15c150.03-10.7 343.51-17.1 407.57 13.09 30.04 14.23 54.01 60.88 72.87 118.4l-.97-.48" fill="url(#l)"/></g><path d="M364.513 320.924l33.382 11.824-1.511 4.46-33.039-14.172 1.168-2.112" fill="#f7a388"/><path d="M364.513 320.924c-2.429 4.539-5.028 7.947-7.604 8.63-3.898 1.02-13.316 2.789-22.817 4.45.107-5.09.277-10.459.49-15.848.917-22.624 2.6-45.419 3.773-47.548 1.916-3.559 7.157-11.29 15.422-13.059l.022.106s-2.855 16.873 14.186 16.873c16.234 0 18.3-15.787 18.448-17.299 8.352.938 21.155 5.112 22.923 21.899.363 3.324.873 7.584 1.533 12.42l-5.261.724s-2.13 23.647-7.604 40.412l-.13.064-33.38-11.824" fill="#f46b6f"/><path d="M367.679 319.152l-3.511-1.304 13.33-32.267-9.82 33.571" fill="#f7978b"/><path d="M386.433 257.23h-7.262s-10.339 11.35-16.983 11.35c-6.647 0-3.064-11.287-3.064-11.287h-3.243c-9.312 0-17.149 6.994-18.204 16.247-.12 1.06-.23 2.065-.324 2.975-.712 6.866 27.106 11.864 27.106 11.864l14.322-.802 8.698-16.969 1.733-6.95-2.779-6.429" fill="#f46b6f"/><path d="M298.777 541.685c.647 3.47 3.054 5.937 6.524 5.29l46.268-8.63a2.156 2.156 0 001.724-2.514l-.765-4.106s-48.663 8.516-53.775 9.934l.024.026" fill="#f4f6f5"/><path d="M312.543 530.035c.482-.419.946-.835 1.429-1.252.928-.831 1.841-1.64 2.721-2.423.463-.415.928-.83 1.358-1.221l2.354-2.103c.512-.461.992-.899 1.423-1.29.79-.709 1.436-1.286 1.89-1.693.391-.35.974-.366 1.375-.028 1.903 1.599 8.05 5.255 19.186-1.634.526-.327 1.228-.156 1.514.394l6.735 12.94s-48.663 8.516-53.775 9.934c1.682-1.049 7.892-6.423 13.79-11.624" fill="#38397c"/><path d="M225.91 541.23c.085 3.53 2.066 6.35 5.597 6.262l47.052-1.148a2.155 2.155 0 002.102-2.207l-.102-4.174s-49.396.653-54.668 1.239l.018.029" fill="#f4f6f5"/><path d="M241.355 531.923c.544-.338 1.066-.672 1.61-1.008 1.05-.674 2.079-1.327 3.071-1.959a994.241 994.241 0 014.196-2.69c.58-.375 1.123-.731 1.61-1.046.893-.575 1.623-1.043 2.134-1.37a1.048 1.048 0 011.365.19c1.623 1.881 7.11 6.47 19.199 1.443.573-.238 1.237.042 1.432.632l4.587 13.848s-49.396.653-54.668 1.239c1.825-.769 8.813-5.085 15.464-9.28" fill="#38397c"/><path d="M192.439 349.796l-25.13-67.019h71.54l25.127 67.019h-71.537" fill="#a9b4b8"/><path d="M268.4 349.796h-4.424l-25.127-67.019 4.015.179 23.243 60.661 2.293 6.179" fill="#7f939f"/><path d="M267.012 349.796h47.27l-.129-4.225h-48.109M468.403 549.555H457.02V362.577h11.382v186.978" fill="#7f939f"/><path d="M406.624 549.555h-11.381V362.577h11.381v186.978" fill="#a9b4b8"/><path d="M208.704 549.555h-11.38V362.577h11.38v186.978" fill="#7f939f"/><path d="M146.928 549.555h-11.381V362.577h11.381v186.978" fill="#a9b4b8"/><path d="M479.792 363.287H124.644a5.532 5.532 0 01-5.532-5.532v-2.428a5.531 5.531 0 015.532-5.531h355.148a5.53 5.53 0 015.53 5.53v2.429a5.532 5.532 0 01-5.53 5.532" fill="#202450"/><path d="M179.255 289.821l1.224 3.263h14.25l-1.224-3.263h-14.25" fill="#7f939f"/><path d="M321.184 305.65l-1.024 1.977 14.424 14.905v-4.376l-13.4-12.505" fill="#e9896f"/><path d="M615.547 560.302H39.659V547.15h575.888v13.15" fill="#a4b7c7"/><g clip-path="url(#m)" transform="matrix(.13333 0 0 -.13333 0 666.667)"><path d="M3931.83 1627.85c-17.15-83.25-11.99-225.06-122.12-247.52-29.66-6.04-58.31 14.51-75.55 38.07-22.56 30.83-27.96 96.08-27.57 133.41.31 29.58 10.4 62.56 13.64 92.41 3.52 32.23 6.37 64.53 10.13 96.74 13.55 116.08 74.19 213.37 176.76 271.32 7.94-38.11 26.03-70.36 41.99-106.95 7.28-16.68 13.84-34.27 18.58-51.75 8.38-30.95-1.76-62.23-9.29-91.88-11.13-43.83-17.43-89.51-26.57-133.85" fill="url(#n)"/></g><path d="M505.475 482.996c.105-.93.22-1.861.342-2.792 1.755-.005 3.582-1.003 5.054-1.765 2.554-1.324 4.626-3.223 6.633-5.252l-.188-.188c-2.001 1.681-4.076 3.309-6.457 4.42-1.33.618-3.271 1.63-4.908 1.828.154-1.112.325-2.22.509-3.328 1.827-.224 3.501-1.424 5.048-2.342 2.63-1.56 4.89-3.578 7.235-5.524l-.034-.041c-3.585 2.604-7.58 6.31-12.117 7.123.241-1.387.495-2.771.787-4.144l.045-.215c5.25-1.328 8.801-5.445 12.821-8.773l-.073-.112c-3.959 3.074-7.679 6.581-12.572 8.074.425-1.966.867-3.926 1.31-5.882 4.75-1.754 8.543-4.536 11.863-8.412l-.096-.094c-3.436 3.576-7.22 5.63-11.577 7.666.439-1.938.875-3.876 1.288-5.82 2.055-1.01 4.216-1.624 6.113-2.954 1.872-1.31 3.552-2.873 4.758-4.824l-.159-.101c-2.657 3.821-6.664 5.01-10.536 7.02.377-1.812.73-3.628 1.044-5.455 4.315-2.376 9.004-4.578 11.45-9.132l-.067-.045c-2.591 4.184-7.119 5.985-11.23 8.263.054-.326.114-.648.164-.975.266-1.693.512-3.39.756-5.085 2.479-.995 4.843-2.396 7.074-3.85 1.584-1.032 3.274-2.053 4.312-3.672l-.154-.108c-2.314 3.316-7.384 5.234-11.126 6.892.242-1.713.484-3.426.728-5.141 4.153-2.513 9.041-3.903 11.597-8.435.076-.133-.121-.257-.205-.126-2.648 4.137-7.308 5.413-11.278 7.761.152-1.061.307-2.123.467-3.183 4.487-1.649 9.703-5.405 12.068-9.46.13-.224-.192-.43-.339-.217-2.412 3.559-7.26 7.427-11.597 8.835.265-1.719.543-3.435.85-5.148l.065-.151c2.014-.593 4.005-2.013 5.744-3.087 2.096-1.293 4.096-2.794 5.401-4.921.144-.235-.239-.452-.373-.21-1.994 3.555-6.722 5.94-10.636 7.297.114-.626.228-1.25.352-1.874.184-.932.374-1.865.564-2.797 1.604-1.107 3.638-1.636 5.248-2.805 1.398-1.016 2.62-2.24 3.818-3.482.12-.121-.057-.312-.182-.193-1.624 1.525-3.295 2.99-5.272 4.048-1.106.592-2.366.93-3.436 1.579.313-1.524.625-3.048.924-4.575l.057-.012.057.012.263-.083c2.18-.549 3.847-2.425 5.31-4.024l-.055-.057c-1.538 1.42-3.284 2.993-5.343 3.604l-.02-.01-.156-.023c.237-1.243.464-2.487.672-3.734.157-.028.295-.162.257-.32 1.156-.774 2.206-1.764 3.191-2.73l-.11-.119c-1.023.883-2.034 1.61-3.186 2.248.407-2.575.723-5.165.867-7.78.013-.243-.354-.245-.375-.007-.228 2.518-.593 5.011-1.028 7.492-1.201-1.577-2.54-3.201-3.275-5.006l-.153.045c.36 1.121.98 2.101 1.593 3.099.55.892.988 1.93 1.688 2.722-.242 1.332-.504 2.66-.778 3.988-1.462-.234-2.802-.512-4.008-1.57-1.478-1.295-2.318-3.056-2.463-5.01-.019-.24-.397-.238-.376.002.167 1.816.89 3.524 2.132 4.878 1.307 1.424 2.841 1.879 4.601 2.244-.32 1.532-.65 3.063-.988 4.592-1.326-.796-2.56-1.836-3.756-2.79-1.932-1.539-3.072-3.391-4.748-5.124-.168-.172-.441.077-.276.254 1.571 1.67 2.634 3.478 4.419 4.978 1.287 1.08 2.707 2.434 4.241 3.233l-.053.243-.05.042-.035.343c-.323 1.464-.644 2.93-.954 4.399l-.054.276c-3.416-1.564-8.52-4.282-8.974-8.244-.042-.376-.605-.272-.517.113 1.01 4.485 5.939 6.473 9.335 8.919-.335 1.66-.643 3.324-.924 4.993-2.207-.76-4.304-1.699-6.156-3.17-1.686-1.34-4.068-2.957-4.827-5.033l-.097.043c.701 2.063 2.84 3.481 4.396 4.89 1.973 1.785 3.993 3.3 6.532 4.015l-.007.223a254.127 254.127 0 00-.504 3.179c-4.148-.319-9.953-3.47-12.073-6.607l-.02.016c1.445 2.395 3.63 3.793 6.096 5.007 1.84.908 3.829 1.981 5.912 2.136-.298 1.962-.587 3.926-.879 5.89-1.8-.67-3.707-.992-5.488-1.704-2.647-1.06-4.67-2.964-6.228-5.304-.093-.141-.33-.021-.236.126 2.872 4.565 7.004 5.905 11.843 7.614-.242 1.611-.495 3.22-.76 4.828-3.962-.758-9.083-3.177-11.087-6.617-.148-.252-.55-.043-.403.212 1.266 2.205 3.447 3.599 5.672 4.723 1.603.809 3.81 2.15 5.719 2.294l-.027.158a159.89 159.89 0 01-1.341 6.909c-4.425-1.112-7.285-4.39-10.501-7.457-.223-.214-.574.112-.351.329 3.276 3.225 6.153 6.608 10.705 7.801a250.768 250.768 0 01-1.293 5.584c-3.768-1.053-7.499-3.728-9.936-6.8-.173-.218-.476.078-.312.294 2.533 3.333 6.187 5.849 10.075 7.226-.49 1.994-.996 3.982-1.507 5.97-3.872-.59-6.855-3.014-9.239-6.078l-.128.096c2.119 2.948 5.323 6.352 9.179 6.71l-.49 1.901c-.1.381-.202.77-.309 1.161-2.918-.858-5.628-1.906-8.037-3.874l-.081.106c2.289 2.062 5.03 3.451 7.96 4.352-.326 1.194-.668 2.42-1.008 3.671-.724-.337-1.424-.707-2.216-.944-1.452-.435-2.392-1.356-3.656-2.115l-.131.17c1.11.724 1.89 1.656 3.156 2.132.937.354 1.821.804 2.728 1.206-1.33 4.96-2.508 10.232-1.87 14.992.142 1.056 1.913 1.336 2.187.212.84-3.45.798-7.137 1.19-10.665" fill="#7070c0"/><g clip-path="url(#o)" transform="matrix(.13333 0 0 -.13333 0 666.667)"><path d="M3583.28 1651.69c19.59-82.72 84.12-209.09-6.24-275.95-24.33-18-58.98-11.44-84.56 2.64-33.46 18.42-65.9 75.3-81.29 109.31-12.21 26.95-16.98 61.11-26.63 89.53-10.43 30.7-21.47 61.19-31.66 91.97-36.71 110.96-22.79 224.75 45.74 320.58 23.27-31.2 53.3-52.8 83.21-79.23 13.62-12.05 27-25.24 38.67-39.08 20.67-24.53 24.68-57.16 30.36-87.22 8.41-44.44 21.98-88.51 32.4-132.55" fill="url(#p)"/></g><path d="M474.844 484.623c-.3-.888-.588-1.782-.87-2.678 1.59-.744 2.825-2.418 3.837-3.733 1.758-2.279 2.833-4.872 3.797-7.561.05-.143-.187-.226-.25-.09-1.105 2.368-2.298 4.72-3.99 6.734-.943 1.121-2.276 2.856-3.676 3.726-.33-1.073-.643-2.15-.943-3.23 1.56-.975 2.572-2.768 3.587-4.255 1.725-2.524 2.924-5.308 4.228-8.06l-.047-.024c-2.153 3.873-4.21 8.92-7.98 11.57-.366-1.358-.72-2.72-1.036-4.087l-.048-.215c4.198-3.419 5.68-8.65 7.919-13.364l-.115-.07c-2.289 4.457-4.18 9.207-7.988 12.625a581.049 581.049 0 01-1.296-5.886c3.568-3.594 5.832-7.718 7.206-12.633l-.127-.044c-1.605 4.692-4.17 8.15-7.26 11.836-.42-1.943-.843-3.883-1.29-5.82 1.438-1.783 3.137-3.252 4.298-5.257 1.144-1.978 2.007-4.104 2.276-6.382l-.185-.025c-.798 4.587-3.927 7.355-6.59 10.81a168.225 168.225 0 00-1.356-5.385c2.91-3.976 6.231-7.95 6.526-13.11l-.08-.012c-.583 4.885-3.927 8.429-6.692 12.229-.09-.317-.171-.636-.263-.953-.475-1.647-.967-3.29-1.464-4.93 1.83-1.948 3.381-4.214 4.79-6.474 1-1.603 2.102-3.244 2.36-5.15l-.186-.032c-.697 3.983-4.484 7.859-7.179 10.944l-1.508-4.968c2.704-4.032 6.548-7.356 6.954-12.541.012-.155-.219-.183-.239-.03-.655 4.87-4.341 7.993-6.95 11.798-.31-1.028-.617-2.055-.92-3.084 3.371-3.388 6.515-8.995 6.947-13.67.026-.257-.356-.309-.397-.053-.685 4.244-3.448 9.795-6.784 12.903-.487-1.67-.959-3.343-1.404-5.023l-.004-.166c1.576-1.387 2.781-3.516 3.905-5.222 1.354-2.057 2.534-4.265 2.819-6.741.03-.275-.407-.31-.427-.035-.306 4.066-3.588 8.223-6.564 11.106-.158-.615-.321-1.23-.472-1.847-.225-.924-.446-1.85-.666-2.775.985-1.68 2.606-3.018 3.572-4.758.84-1.511 1.43-3.136 1.993-4.767.056-.161-.184-.26-.25-.099-.827 2.071-1.723 4.102-3.067 5.895-.754 1.004-1.754 1.841-2.45 2.881-.36-1.514-.72-3.026-1.094-4.536l.048-.036.056-.013.204-.185c1.744-1.419 2.464-3.823 3.116-5.891l-.075-.028c-.795 1.937-1.713 4.1-3.321 5.521l-.024.002-.152.044c-.307-1.227-.628-2.451-.964-3.668.129-.092.197-.272.097-.4.72-1.19 1.255-2.528 1.739-3.822l-.148-.062c-.556 1.233-1.166 2.32-1.94 3.385-.719-2.505-1.526-4.988-2.499-7.42-.09-.225-.423-.073-.343.152.856 2.379 1.578 4.793 2.232 7.225-1.756-.921-3.654-1.829-5.082-3.156l-.12.106c.797.865 1.774 1.492 2.752 2.137.873.577 1.71 1.333 2.678 1.756.344 1.31.667 2.625.978 3.943-1.423.404-2.755.718-4.296.268-1.886-.551-3.391-1.792-4.347-3.502-.119-.209-.461-.049-.34.159.917 1.577 2.295 2.823 3.992 3.525 1.787.74 3.37.504 5.119.091.356 1.525.701 3.05 1.042 4.58-1.54-.16-3.097-.584-4.584-.943-2.4-.581-4.214-1.778-6.466-2.642-.226-.086-.368.257-.143.346 2.128.852 3.853 2.042 6.108 2.65 1.623.434 3.48 1.062 5.208 1.14l.053.242-.026.062c-.059.153.008.266.113.324.325 1.462.652 2.928.992 4.389l.065.273c-3.756.024-9.529-.284-11.612-3.686-.198-.323-.664.009-.422.322 2.809 3.639 8.116 3.36 12.225 4.144.399 1.647.821 3.286 1.27 4.918-2.32.242-4.618.277-6.918-.278-2.093-.502-4.935-.961-6.499-2.522l-.072.078c1.508 1.575 4.044 1.958 6.048 2.578 2.544.786 5.016 1.308 7.619.884l.088.205c.29 1.033.584 2.064.884 3.095-3.895 1.46-10.487 1.054-13.732-.895l-.012.023c2.32 1.56 4.893 1.906 7.639 1.968 2.052.045 4.308.178 6.262-.56.558 1.905 1.126 3.806 1.688 5.71-1.913.152-3.778.666-5.693.771-2.848.156-5.484-.716-7.884-2.18-.145-.088-.31.119-.163.215 4.531 2.926 8.84 2.396 13.95 1.904.461 1.562.913 3.128 1.349 4.697-3.91.984-9.575.955-12.844-1.32-.24-.167-.515.195-.276.364 2.08 1.464 4.645 1.807 7.136 1.887 1.795.057 4.361.342 6.152-.334l.044.154a158.126 158.126 0 011.699 6.83c-4.482.86-8.458-.904-12.667-2.329-.293-.099-.473.344-.179.448 4.331 1.54 8.367 3.393 12.998 2.552.418 1.865.81 3.736 1.185 5.61-3.861.634-8.372-.215-11.877-1.971-.25-.126-.4.272-.16.398 3.704 1.951 8.076 2.691 12.182 2.299.399 2.013.779 4.03 1.154 6.047-3.759 1.1-7.486.161-10.94-1.61l-.074.142c3.164 1.777 7.506 3.51 11.151 2.206l.357 1.932c.072.388.143.784.212 1.183-3.009.453-5.908.647-8.922-.12l-.028.13c2.945.903 6.016 1.006 9.053.586.208 1.219.415 2.477.635 3.753-.798 0-1.59-.04-2.407.079-1.5.219-2.741-.219-4.21-.373-.133-.015-.182.189-.045.208 1.312.189 2.412.705 3.763.602.999-.074 1.99-.04 2.98-.058.887 5.057 2.044 10.333 4.633 14.381.574.896 2.298.403 2.071-.73-.693-3.485-2.29-6.809-3.42-10.171" fill="#7070c0"/><g clip-path="url(#q)" transform="matrix(.13333 0 0 -.13333 0 666.667)"><path d="M3774.17 1715.8c4.65-105.1 53.85-273.67-71.48-334.01-33.76-16.25-74.36-.27-102.19 22.77-36.42 30.15-62.69 106.81-73.53 151.71-8.59 35.59-6.49 78.22-11.64 115.01-5.56 39.74-11.93 79.36-17.19 119.15-18.93 143.38 24.33 278.5 129.83 379.12 21.07-43.31 52.58-76.52 82.8-115.59 13.79-17.8 26.99-36.92 37.98-56.45 19.45-34.6 16.76-75.21 16.71-113.06-.06-55.96 6.23-112.69 8.71-168.65" fill="url(#r)"/></g><path d="M490.823 483.63c-.158-1.149-.302-2.3-.438-3.454 2.106-.537 3.995-2.288 5.531-3.65 2.664-2.363 4.572-5.269 6.365-8.313.095-.162-.174-.317-.282-.168-1.892 2.624-3.888 5.207-6.41 7.262-1.405 1.145-3.428 2.946-5.333 3.678-.152-1.38-.284-2.761-.397-4.145 2.122-.821 3.768-2.77 5.345-4.34 2.681-2.67 4.784-5.777 7.005-8.82l-.052-.041c-3.513 4.212-7.182 9.87-12.377 12.22a136.34 136.34 0 01-.313-5.211l-.01-.272c5.896-3.184 8.907-9.201 12.722-14.412l-.123-.112c-3.817 4.888-7.216 10.225-12.635 13.499a699.726 699.726 0 01-.212-7.456c5.168-3.542 8.875-8.032 11.683-13.69l-.143-.082c-3.038 5.333-6.956 8.944-11.566 12.706-.06-2.458-.126-4.914-.219-7.37 2.159-1.836 4.564-3.23 6.44-5.399 1.848-2.14 3.39-4.525 4.244-7.23.047-.142-.168-.213-.22-.074-2.03 5.39-6.477 8.032-10.513 11.616a200.444 200.444 0 00-.402-6.86c4.458-4.159 9.415-8.223 10.968-14.428l-.093-.033c-1.84 5.805-6.727 9.338-10.968 13.318-.033-.406-.06-.813-.099-1.221a503.727 503.727 0 00-.636-6.332c2.675-1.944 5.084-4.341 7.322-6.761 1.586-1.718 3.306-3.458 4.06-5.714.046-.142-.164-.222-.218-.082-1.77 4.68-7.272 8.517-11.261 11.642-.227-2.13-.457-4.26-.684-6.388 4.221-4.276 9.664-7.426 11.357-13.637.05-.184-.224-.273-.285-.09-1.921 5.766-7.127 8.711-11.179 12.733a569.522 569.522 0 01-.402-3.963c4.881-3.337 10.001-9.425 11.61-15.008.088-.307-.362-.459-.473-.157-1.815 5.001-6.457 11.109-11.235 14.114-.204-2.142-.39-4.285-.544-6.432l.035-.204c2.237-1.321 4.195-3.628 5.956-5.442 2.123-2.187 4.067-4.598 4.988-7.543.101-.325-.424-.47-.512-.14-1.312 4.87-6.263 9.164-10.55 11.981-.05-.785-.105-1.569-.145-2.356a515.89 515.89 0 01-.169-3.526c1.587-1.815 3.868-3.067 5.445-4.958 1.37-1.642 2.464-3.481 3.527-5.333.105-.184-.164-.359-.28-.179-1.485 2.324-3.045 4.588-5.096 6.458-1.147 1.044-2.557 1.832-3.645 2.933a552.626 552.626 0 00-.279-5.767l.064-.032.073-.004a.348.348 0 00.291-.177c2.448-1.32 3.88-4.079 5.152-6.44l-.084-.05c-1.415 2.17-3.032 4.585-5.317 5.942l-.028-.004-.196.019c-.09-1.563-.195-3.124-.324-4.683.181-.083.305-.285.212-.463 1.152-1.281 2.112-2.785 3-4.244l-.167-.11c-.96 1.37-1.953 2.55-3.141 3.666-.294-3.214-.7-6.417-1.32-9.6-.058-.293-.498-.185-.451.106.49 3.092.805 6.193 1.039 9.301-1.92-1.528-4.019-3.07-5.448-5.015l-.171.1c.77 1.238 1.813 2.226 2.85 3.236.93.904 1.773 2.018 2.853 2.756.113 1.671.201 3.344.276 5.019-1.827.161-3.518.236-5.287-.668-2.164-1.105-3.708-2.964-4.475-5.264-.094-.281-.549-.165-.449.116.75 2.13 2.136 3.961 4.037 5.208 2.002 1.313 3.979 1.393 6.202 1.297.08 1.935.146 3.871.206 5.808-1.834-.552-3.629-1.426-5.353-2.208-2.784-1.261-4.713-3.137-7.25-4.708-.254-.157-.507.227-.254.388 2.39 1.527 4.212 3.375 6.812 4.632 1.87.907 3.984 2.102 6.067 2.595l.01.305-.048.068c-.106.174-.05.328.063.42.056 1.856.115 3.714.19 5.567l.018.348c-4.573-.84-11.521-2.552-13.264-7.17-.167-.438-.81-.142-.59.294 2.573 5.075 9.09 5.964 13.905 7.87.101 2.091.237 4.183.406 6.271-2.878-.241-5.68-.733-8.348-1.938-2.428-1.096-5.777-2.312-7.317-4.574l-.105.08c1.469 2.263 4.464 3.316 6.757 4.532 2.91 1.547 5.793 2.754 9.056 2.84l.06.27c.113 1.324.232 2.645.357 3.966-5.072.875-12.992-1.144-16.486-4.266l-.022.025c2.462 2.435 5.508 3.45 8.832 4.16 2.486.53 5.198 1.216 7.743.77.237 2.445.487 4.89.732 7.335-2.364-.26-4.748-.068-7.1-.384-3.499-.468-6.501-2.138-9.083-4.474-.154-.14-.401.073-.245.222 4.83 4.607 10.192 4.962 16.517 5.546.2 2.006.386 4.014.554 6.024-4.983.29-11.863-1.058-15.31-4.579-.253-.257-.672.116-.42.377 2.19 2.262 5.228 3.274 8.239 3.946 2.168.486 5.223 1.426 7.556 1.02l.017.197c.232 2.895.382 5.795.484 8.697-5.645.007-10.072-3.06-14.86-5.765-.332-.188-.654.308-.321.504 4.91 2.875 9.387 6.061 15.212 6.112.075 2.363.119 4.728.14 7.093-4.84-.122-10.128-2.198-13.983-5.146-.273-.21-.548.237-.285.448 4.05 3.229 9.195 5.141 14.279 5.614.017 2.542.013 5.08.001 7.619-4.824.467-9.137-1.537-12.927-4.49l-.124.154c3.435 2.895 8.312 6.007 13.047 5.267l-.013 2.43c-.003.488-.01.986-.018 1.487-3.762-.145-7.332-.581-10.818-2.212l-.066.152c3.374 1.779 7.084 2.615 10.872 2.81-.029 1.529-.068 3.106-.096 4.707-.97-.185-1.925-.416-2.946-.46-1.875-.081-3.282-.901-5.028-1.429-.16-.048-.267.187-.104.243 1.55.533 2.768 1.414 4.432 1.604 1.233.138 2.429.41 3.638.617-.094 6.356.094 13.037 2.303 18.556.49 1.224 2.699 1.023 2.688-.408-.039-4.395-1.21-8.807-1.805-13.157" fill="#7070c0"/><path d="M512.447 488.88l-.619 11.39-.968 17.738-1.587 29.143h-39.456l-1.585-29.143-.97-17.737-.618-11.391h45.803" fill="#92a6b3"/><path d="M511.828 500.27l-.128 2.285-.125 2.364-.715 13.089h-42.628l-.715-13.09-.126-2.363-.128-2.284h44.565" fill="#a4b7c7"/><path d="M511.7 502.555l-.125 2.364h-44.058l-.126-2.364H511.7" fill="#92a6b3"/><path d="M346.805 623.93a10.149 10.149 0 00-1.478 1.938l-.62-.32a.803.803 0 00-1.583.27.807.807 0 00.893.707l.244-.07.602.312a9.74 9.74 0 00-.719 2.325l.995.175a8.814 8.814 0 012.389-4.63l-.723-.706M354.123 620.861a9.52 9.52 0 00-.68.024l-.098-.836a.956.956 0 10-1.004.116l.098.832c-.952.155-1.871.443-2.746.863l.436.91a9.165 9.165 0 013.994-.898c.661 0 1.324.072 1.965.212l.216-.99a10.328 10.328 0 00-2.181-.233M362.925 624.259a.805.805 0 10-.901-.787l-.555.485a10.147 10.147 0 00-1.878-1.518l-.538.854a8.997 8.997 0 013.419 3.902l.92-.418a9.842 9.842 0 00-1.256-2.06l.536-.468.253.01M353.392 634.473a26.01 26.01 0 01-1.543.047c-1.173 0-2.31-.081-3.305-.239a11.748 11.748 0 01-1.692-.389 8.23 8.23 0 007.183 4.167c3.808 0 7.017-2.555 7.934-6.006-.909.6-2.008 1.1-3.278 1.496-1.572.491-3.407.81-5.299.924" fill="#a4b7c7"/><path d="M357.56 630.36a1.815 1.815 0 010-3.628c1 0 1.813.813 1.813 1.813s-.813 1.815-1.813 1.815zm-6.316 1.21a2.469 2.469 0 01-2.467-2.466 2.468 2.468 0 012.467-2.465 2.468 2.468 0 012.465 2.465 2.47 2.47 0 01-2.465 2.467zm2.879-8.686c-4.471 0-8.107 3.555-8.107 7.924 0 .568.063 1.132.183 1.683.898.644 3.608 1.186 7.13.974 3.839-.23 7.063-1.276 8.896-2.879a8.346 8.346 0 00-.06-.776c-.508-3.949-3.965-6.926-8.042-6.926M375.46 625.373c-.392-.154-1.073-.412-1.843-.316-.734.09-1.125.453-1.125 1.341v1.155h2.97v2.29h-2.97v7.273h-2.575v-7.272h-1.786v-2.29h1.786v-1.185c0-2.24 1.194-3.71 3.424-3.71.856 0 1.543.162 2.12.412l-.001 2.302M381.73 629.816a4.258 4.258 0 00-.702-.063c-1.193 0-2.012.73-2.012 2.154v5.21h-2.576v-9.564h2.496v1.047c.603-.899 1.521-1.303 2.696-1.303.552 0 1.13.171 1.457.45l-1.358 2.07M385.135 631.432h4.232c-.235-1.224-.976-1.915-2.082-1.915-1.213 0-1.924.73-2.15 1.915zm6.818.888c0 .296-.02.652-.049.87h-6.779c.276 1.38 1.243 1.982 2.458 1.982.828 0 1.725-.335 2.416-.919l1.51 1.66c-1.086.996-2.468 1.45-4.076 1.45-2.93 0-4.962-1.994-4.962-5.003 0-3.01 1.973-5.063 4.834-5.063 2.754 0 4.639 2.043 4.648 5.023M395.339 631.432h4.233c-.236-1.224-.977-1.915-2.083-1.915-1.213 0-1.924.73-2.15 1.915zm6.818.888c0 .296-.018.652-.049.87h-6.78c.277 1.38 1.244 1.982 2.459 1.982.828 0 1.726-.335 2.417-.919l1.51 1.66c-1.086.996-2.467 1.45-4.075 1.45-2.932 0-4.964-1.994-4.964-5.003 0-3.01 1.973-5.063 4.834-5.063 2.754 0 4.639 2.043 4.648 5.023M405.716 632.33c0 1.51.996 2.635 2.457 2.635 1.52 0 2.467-1.174 2.467-2.634 0-1.462-.947-2.636-2.467-2.636-1.461 0-2.457 1.125-2.457 2.636zm7.57 0c0 2.871-1.994 5.033-4.63 5.033-1.283 0-2.19-.503-2.81-1.243v4.944h-2.567v-13.51h2.517v1.055c.621-.78 1.539-1.312 2.85-1.312 2.646 0 4.64 2.162 4.64 5.034M417.079 637.116h-2.576v-9.563h2.576zm.344-12.69c0 .927-.72 1.638-1.648 1.638a1.61 1.61 0 01-1.638-1.639c0-.928.711-1.658 1.638-1.658.928 0 1.648.73 1.648 1.658M421.376 630.959l3.601-3.406h3.16l-4.64 4.5 4.668 5.063h-3.168l-3.621-3.868v3.868h-2.575v-14.21h2.575v8.053M245.883 634.472v-4.277c-.527-.822-1.659-1.524-2.832-1.524-1.894 0-3.027 1.562-3.027 3.651 0 2.092 1.133 3.634 3.027 3.634 1.173 0 2.305-.664 2.832-1.484zm0 2.557v-1.405c-.703.957-1.855 1.64-3.184 1.64-2.46 0-4.198-1.875-4.198-4.942 0-3.007 1.719-4.96 4.198-4.96 1.272 0 2.422.624 3.184 1.66v-5.02h1.466v13.027h-1.466M253.87 628.573c-2.01 0-3.007 1.699-3.085 3.144h6.191c-.019-1.407-.956-3.144-3.105-3.144zm-4.627 3.731c0-2.735 1.952-4.943 4.648-4.943 2.852 0 4.53 2.227 4.53 5.059v.372h-7.636c.118 1.777 1.367 3.261 3.399 3.261 1.073 0 2.168-.429 2.91-1.192l.703.958c-.937.937-2.208 1.445-3.75 1.445-2.794 0-4.804-2.012-4.804-4.96M259.476 635.78l.763-1.055c.624.723 1.816 1.348 3.104 1.348 1.445 0 2.228-.684 2.228-1.62 0-2.286-5.84-.88-5.84-4.376 0-1.465 1.268-2.716 3.514-2.716 1.602 0 2.735.607 3.496 1.368l-.684 1.016c-.565-.684-1.601-1.192-2.812-1.192-1.289 0-2.09.644-2.09 1.484 0 2.07 5.84.704 5.84 4.377 0 1.58-1.27 2.85-3.711 2.85-1.541 0-2.852-.468-3.808-1.484M268.89 637.03v-9.434h1.465v9.433zm-.254-11.758c0-.547.448-.996.976-.996a1 1 0 01.996.996c0 .547-.45.977-.996.977a.98.98 0 01-.976-.977M279.612 634.315v-4.12c-.508-.822-1.64-1.524-2.812-1.524-1.895 0-3.028 1.504-3.028 3.593 0 2.07 1.133 3.595 3.028 3.595 1.172 0 2.304-.723 2.812-1.544zm-6.836 5.137l.743-1.093c.781.937 1.718 1.287 3.065 1.287 1.563 0 3.028-.76 3.028-2.831v-1.347c-.684.956-1.836 1.678-3.164 1.678-2.461 0-4.199-1.836-4.199-4.882 0-3.027 1.719-4.903 4.199-4.903 1.27 0 2.403.625 3.164 1.661v-1.426h1.465v9.16c0 3.125-2.188 4.103-4.493 4.103-1.601 0-2.695-.314-3.808-1.407M289.884 637.03v-6.171c0-1.662-.84-2.188-2.11-2.188-1.151 0-2.246.702-2.793 1.465v6.893h-1.464v-9.433h1.464v1.368c.664-.781 1.954-1.603 3.36-1.603 1.972 0 3.008.998 3.008 3.048v6.62h-1.465M297.872 628.573c-2.01 0-3.008 1.699-3.085 3.144h6.19c-.018-1.407-.956-3.144-3.105-3.144zm-4.628 3.731c0-2.735 1.952-4.943 4.648-4.943 2.852 0 4.53 2.227 4.53 5.059v.372h-7.635c.117 1.777 1.366 3.261 3.398 3.261 1.074 0 2.168-.429 2.91-1.192l.704.958c-.938.937-2.208 1.445-3.751 1.445-2.793 0-4.804-2.012-4.804-4.96M311.133 634.472v-4.277c-.528-.822-1.661-1.524-2.832-1.524-1.894 0-3.026 1.562-3.026 3.651 0 2.092 1.132 3.634 3.026 3.634 1.171 0 2.304-.664 2.832-1.484zm0 2.557v-1.405c-.704.957-1.856 1.64-3.184 1.64-2.461 0-4.198-1.875-4.198-4.942 0-3.007 1.718-4.96 4.198-4.96 1.27 0 2.423.624 3.184 1.66v-5.02h1.464v13.027h-1.464M323.865 635.956c1.916 0 3.05-1.542 3.05-3.634 0-2.089-1.134-3.651-3.05-3.651-1.15 0-2.302.702-2.812 1.524v4.277c.51.82 1.662 1.484 2.812 1.484zm-4.276 1.073v-13.026h1.464v5.02c.763-1.037 1.895-1.662 3.186-1.662 2.458 0 4.197 1.954 4.197 4.961 0 3.067-1.739 4.942-4.197 4.942-1.328 0-2.482-.683-3.186-1.64v1.405h-1.464M330.037 639.393c.215.098.567.156.802.156.644 0 1.074-.214 1.406-.996l.624-1.425-3.945-9.532h1.583l3.144 7.735 3.125-7.735h1.601l-4.726 11.348c-.567 1.366-1.523 1.895-2.774 1.915-.312 0-.8-.059-1.073-.138l.233-1.328" fill="#a4b7c7"/></svg>